<svg width="40" height="39" viewBox="0 0 40 39" fill="none" xmlns="http://www.w3.org/2000/svg">
<g id="uim:analytics">
<path id="Vector" d="M8.625 35.75C8.19402 35.75 7.7807 35.5788 7.47595 35.274C7.17121 34.9693 7 34.556 7 34.125V21.125C7 20.694 7.17121 20.2807 7.47595 19.976C7.7807 19.6712 8.19402 19.5 8.625 19.5C9.05598 19.5 9.4693 19.6712 9.77405 19.976C10.0788 20.2807 10.25 20.694 10.25 21.125V34.125C10.25 34.556 10.0788 34.9693 9.77405 35.274C9.4693 35.5788 9.05598 35.75 8.625 35.75ZM16.75 35.75C16.319 35.75 15.9057 35.5788 15.601 35.274C15.2962 34.9693 15.125 34.556 15.125 34.125V4.875C15.125 4.44402 15.2962 4.0307 15.601 3.72595C15.9057 3.4212 16.319 3.25 16.75 3.25C17.181 3.25 17.5943 3.4212 17.899 3.72595C18.2038 4.0307 18.375 4.44402 18.375 4.875V34.125C18.375 34.556 18.2038 34.9693 17.899 35.274C17.5943 35.5788 17.181 35.75 16.75 35.75ZM24.875 35.75C24.444 35.75 24.0307 35.5788 23.726 35.274C23.4212 34.9693 23.25 34.556 23.25 34.125V14.625C23.25 14.194 23.4212 13.7807 23.726 13.476C24.0307 13.1712 24.444 13 24.875 13C25.306 13 25.7193 13.1712 26.024 13.476C26.3288 13.7807 26.5 14.194 26.5 14.625V34.125C26.5 34.556 26.3288 34.9693 26.024 35.274C25.7193 35.5788 25.306 35.75 24.875 35.75ZM33 35.75C32.569 35.75 32.1557 35.5788 31.851 35.274C31.5462 34.9693 31.375 34.556 31.375 34.125V27.625C31.375 27.194 31.5462 26.7807 31.851 26.476C32.1557 26.1712 32.569 26 33 26C33.431 26 33.8443 26.1712 34.149 26.476C34.4538 26.7807 34.625 27.194 34.625 27.625V34.125C34.625 34.556 34.4538 34.9693 34.149 35.274C33.8443 35.5788 33.431 35.75 33 35.75Z" fill="black"/>
</g>
</svg>
