<svg width="100" height="100" viewBox="0 0 100 100" fill="none" xmlns="http://www.w3.org/2000/svg">
<g id="material-symbols:backup-outline">
<path id="Vector" d="M27.0827 83.3334C20.7632 83.3334 15.3646 81.1458 10.8868 76.7708C6.40907 72.3958 4.16879 67.0486 4.16602 60.7292C4.16602 55.3125 5.79796 50.4861 9.06185 46.25C12.3257 42.0139 16.5966 39.3056 21.8743 38.125C23.6105 31.7361 27.0827 26.5625 32.291 22.6042C37.4993 18.6459 43.4021 16.6667 49.9993 16.6667C58.1243 16.6667 65.0174 19.4972 70.6785 25.1584C76.3396 30.8195 79.1688 37.7111 79.166 45.8334C83.9577 46.3889 87.9341 48.4556 91.0952 52.0334C94.2563 55.6111 95.8355 59.7945 95.8327 64.5834C95.8327 69.7917 94.0105 74.2195 90.366 77.8667C86.7216 81.5139 82.2938 83.3361 77.0827 83.3334H54.166C51.8743 83.3334 49.9132 82.5181 48.2827 80.8875C46.6521 79.257 45.8355 77.2945 45.8327 75V53.5417L39.166 60L33.3327 54.1667L49.9993 37.5L66.666 54.1667L60.8327 60L54.166 53.5417V75H77.0827C79.9993 75 82.4646 73.9931 84.4785 71.9792C86.4924 69.9653 87.4993 67.5 87.4993 64.5834C87.4993 61.6667 86.4924 59.2014 84.4785 57.1875C82.4646 55.1736 79.9993 54.1667 77.0827 54.1667H70.8327V45.8334C70.8327 40.0695 68.8007 35.1556 64.7368 31.0917C60.673 27.0278 55.7605 24.9972 49.9993 25C44.2382 25.0028 39.3257 27.0347 35.2618 31.0959C31.198 35.157 29.166 40.0695 29.166 45.8334H27.0827C23.0549 45.8334 19.6174 47.257 16.7702 50.1042C13.923 52.9514 12.4993 56.3889 12.4993 60.4167C12.4993 64.4445 13.923 67.882 16.7702 70.7292C19.6174 73.5764 23.0549 75 27.0827 75H37.4993V83.3334H27.0827Z" fill="#038D03"/>
</g>
</svg>
