<svg width="101" height="100" viewBox="0 0 101 100" fill="none" xmlns="http://www.w3.org/2000/svg">
<g id="mingcute:notification-line">
<g id="Group">
<path id="Vector" fill-rule="evenodd" clip-rule="evenodd" d="M21.3335 37.5C21.3335 29.7645 24.4064 22.3458 29.8762 16.876C35.346 11.4062 42.7647 8.33331 50.5001 8.33331C58.2356 8.33331 65.6543 11.4062 71.1241 16.876C76.5939 22.3458 79.6668 29.7645 79.6668 37.5V53.1833L87.2584 68.3667C87.6079 69.0655 87.7729 69.8421 87.7378 70.6226C87.7027 71.4032 87.4686 72.1618 87.0578 72.8264C86.647 73.4911 86.0731 74.0396 85.3907 74.4201C84.7082 74.8005 83.9398 75.0001 83.1584 75H66.6418C65.715 78.576 63.6269 81.743 60.7054 84.0039C57.7839 86.2647 54.1943 87.4914 50.5001 87.4914C46.806 87.4914 43.2164 86.2647 40.2949 84.0039C37.3734 81.743 35.2853 78.576 34.3585 75H17.8418C17.0605 75.0001 16.2921 74.8005 15.6096 74.4201C14.9271 74.0396 14.3532 73.4911 13.9424 72.8264C13.5316 72.1618 13.2976 71.4032 13.2624 70.6226C13.2273 69.8421 13.3924 69.0655 13.7418 68.3667L21.3335 53.1833V37.5ZM43.2835 75C44.0149 76.2667 45.0669 77.3186 46.3336 78.05C47.6004 78.7813 49.0374 79.1663 50.5001 79.1663C51.9629 79.1663 53.3998 78.7813 54.6666 78.05C55.9334 77.3186 56.9854 76.2667 57.7168 75H43.2835ZM50.5001 16.6666C44.9748 16.6666 39.6758 18.8616 35.7687 22.7686C31.8617 26.6756 29.6668 31.9746 29.6668 37.5V53.1833C29.6667 54.4764 29.3657 55.7517 28.7876 56.9083L23.9126 66.6667H77.0918L72.2168 56.9083C71.6373 55.752 71.3348 54.4767 71.3335 53.1833V37.5C71.3335 31.9746 69.1385 26.6756 65.2315 22.7686C61.3245 18.8616 56.0255 16.6666 50.5001 16.6666Z" fill="#038D03"/>
</g>
</g>
</svg>
