<svg width="101" height="100" viewBox="0 0 101 100" fill="none" xmlns="http://www.w3.org/2000/svg">
<g id="fluent-mdl2:issue-tracking-mirrored">
<path id="Vector" d="M13 0H88V100H13V0ZM81.75 93.75V6.25H19.25V93.75H81.75ZM50.5 25V31.25H25.5V25H50.5ZM50.5 50V56.25H25.5V50H50.5ZM50.5 75V81.25H25.5V75H50.5ZM74.5723 20.9473L63 32.5195L54.5527 24.0723L58.9473 19.6777L63 23.7305L70.1777 16.5527L74.5723 20.9473ZM74.5723 45.9473L63 57.5195L54.5527 49.0723L58.9473 44.6777L63 48.7305L70.1777 41.5527L74.5723 45.9473ZM74.5723 70.9473L63 82.5195L54.5527 74.0723L58.9473 69.6777L63 73.7305L70.1777 66.5527L74.5723 70.9473Z" fill="#038D03"/>
</g>
</svg>
