<svg width="40" height="39" viewBox="0 0 40 39" fill="none" xmlns="http://www.w3.org/2000/svg">
<g id="mage:dashboard-3">
<path id="Vector" d="M22.4375 7.60824L22.4375 13.9214C22.4409 14.7532 22.773 15.55 23.3614 16.1381C23.9498 16.7262 24.7467 17.0579 25.5786 17.0609L31.8918 17.0609C32.3042 17.0613 32.7126 16.9804 33.0937 16.8228C33.4748 16.6651 33.8211 16.4339 34.1127 16.1423C34.4043 15.8507 34.6355 15.5044 34.7931 15.1233C34.9508 14.7422 35.0317 14.3338 35.0313 13.9214L35.0313 7.60824C35.0308 6.77573 34.6999 5.97744 34.1112 5.38876C33.5226 4.80008 32.7243 4.46918 31.8918 4.46875L25.5786 4.46875C25.1662 4.46832 24.7578 4.54923 24.3767 4.70685C23.9956 4.86448 23.6493 5.09572 23.3577 5.38733C23.0661 5.67895 22.8349 6.02521 22.6772 6.40631C22.5196 6.7874 22.4387 7.19584 22.4391 7.60824M4.96875 7.60825L4.96875 31.3917C4.96832 31.8042 5.04924 32.2126 5.20686 32.5937C5.36448 32.9748 5.59572 33.321 5.88734 33.6127C6.17895 33.9043 6.52522 34.1355 6.90631 34.2931C7.28741 34.4508 7.69585 34.5317 8.10825 34.5312L14.4214 34.5312C14.8339 34.5319 15.2425 34.4511 15.6238 34.2936C16.0051 34.1361 16.3516 33.9049 16.6433 33.6132C16.9351 33.3216 17.1665 32.9753 17.3242 32.5941C17.482 32.2129 17.5629 31.8043 17.5625 31.3917L17.5625 7.60825C17.5629 7.19584 17.482 6.7874 17.3244 6.40631C17.1668 6.02521 16.9355 5.67895 16.6439 5.38733C16.3523 5.09572 16.006 4.86448 15.6249 4.70685C15.2438 4.54923 14.8354 4.46832 14.423 4.46875L8.10825 4.46875C7.69585 4.46832 7.2874 4.54923 6.90631 4.70686C6.52522 4.86448 6.17895 5.09572 5.88733 5.38733C5.59572 5.67895 5.36448 6.02521 5.20686 6.40631C5.04924 6.7874 4.96832 7.19584 4.96875 7.60825ZM22.4375 25.0786L22.4375 31.3917C22.4371 31.8043 22.518 32.2129 22.6758 32.5941C22.8335 32.9753 23.0649 33.3216 23.3567 33.6132C23.6484 33.9049 23.9949 34.1361 24.3762 34.2936C24.7575 34.4511 25.1661 34.5319 25.5786 34.5312L31.8918 34.5312C32.3042 34.5317 32.7126 34.4508 33.0937 34.2931C33.4748 34.1355 33.8211 33.9043 34.1127 33.6127C34.4043 33.321 34.6355 32.9748 34.7931 32.5937C34.9508 32.2126 35.0317 31.8041 35.0313 31.3917L35.0313 25.0786C35.0317 24.6662 34.9508 24.2578 34.7931 23.8767C34.6355 23.4956 34.4043 23.1493 34.1127 22.8577C33.8211 22.5661 33.4748 22.3349 33.0937 22.1772C32.7126 22.0196 32.3042 21.9387 31.8918 21.9391L25.5786 21.9391C24.7468 21.9421 23.9498 22.2738 23.3614 22.8619C22.773 23.4499 22.4409 24.2467 22.4375 25.0786Z" stroke="black" stroke-width="2.5" stroke-linecap="round" stroke-linejoin="round"/>
</g>
</svg>
