<svg width="40" height="39" viewBox="0 0 40 39" fill="none" xmlns="http://www.w3.org/2000/svg">
<g id="material-symbols:inventory">
<path id="Vector" d="M25.6875 32.3781L18.7812 25.4719L21.0562 23.1969L25.6875 27.8281L34.8687 18.6469L37.1437 20.9219L25.6875 32.3781ZM34.625 16.25H31.375V8.125H28.125V13H11.875V8.125H8.625V30.875H18.375V34.125H8.625C7.73125 34.125 6.96642 33.807 6.3305 33.1711C5.69458 32.5352 5.37608 31.7698 5.375 30.875V8.125C5.375 7.23125 5.6935 6.46642 6.3305 5.8305C6.9675 5.19458 7.73233 4.87608 8.625 4.875H15.4094C15.7073 3.92708 16.2896 3.14871 17.1562 2.53987C18.0229 1.93104 18.9708 1.62608 20 1.625C21.0833 1.625 22.0518 1.92996 22.9055 2.53987C23.7592 3.14979 24.3344 3.92817 24.6312 4.875H31.375C32.2687 4.875 33.0341 5.1935 33.6711 5.8305C34.3081 6.4675 34.6261 7.23233 34.625 8.125V16.25ZM20 8.125C20.4604 8.125 20.8466 7.969 21.1586 7.657C21.4706 7.345 21.6261 6.95933 21.625 6.5C21.6239 6.04067 21.4679 5.655 21.157 5.343C20.8461 5.031 20.4604 4.875 20 4.875C19.5396 4.875 19.1539 5.031 18.843 5.343C18.5321 5.655 18.3761 6.04067 18.375 6.5C18.3739 6.95933 18.5299 7.34554 18.843 7.65862C19.1561 7.97171 19.5417 8.12717 20 8.125Z" fill="black"/>
</g>
</svg>
