<svg width="40" height="39" viewBox="0 0 40 39" fill="none" xmlns="http://www.w3.org/2000/svg">
<g id="ion:notifications-outline">
<path id="Vector" d="M24.8756 29.25V30.4688C24.8756 31.7617 24.3619 33.0017 23.4477 33.9159C22.5335 34.8301 21.2935 35.3438 20.0006 35.3438C18.7076 35.3438 17.4677 34.8301 16.5534 33.9159C15.6392 33.0017 15.1256 31.7617 15.1256 30.4688V29.25M33.0777 26.7691C31.1217 24.375 29.7407 23.1563 29.7407 16.556C29.7407 10.5117 26.6542 8.35834 24.1138 7.3125C23.7764 7.17387 23.4588 6.85547 23.3559 6.50889C22.9103 4.9923 21.6611 3.65625 20.0006 3.65625C18.34 3.65625 17.09 4.99307 16.649 6.51041C16.5462 6.8608 16.2285 7.17387 15.8911 7.3125C13.3477 8.35986 10.2643 10.5056 10.2643 16.556C10.2605 23.1563 8.87947 24.375 6.92337 26.7691C6.1129 27.7608 6.82283 29.25 8.24038 29.25H31.7684C33.1783 29.25 33.8836 27.7563 33.0777 26.7691Z" stroke="black" stroke-width="2" stroke-linecap="round" stroke-linejoin="round"/>
</g>
</svg>
