<svg width="40" height="39" viewBox="0 0 40 39" fill="none" xmlns="http://www.w3.org/2000/svg">
<g id="proicons:settings">
<path id="Vector" d="M11.9547 10.5008C12.3969 10.6564 12.8676 10.7146 13.3345 10.6712C13.8013 10.6278 14.2532 10.4839 14.6592 10.2495C15.0652 10.015 15.4157 9.6954 15.6866 9.31271C15.9574 8.93002 16.1423 8.49325 16.2284 8.03238L16.7484 5.23738C18.8866 4.7503 21.107 4.7503 23.2452 5.23738L23.7684 8.03238C23.8546 8.49325 24.0395 8.93002 24.3103 9.31271C24.5812 9.6954 24.9316 10.015 25.3376 10.2495C25.7436 10.4839 26.1956 10.6278 26.6624 10.6712C27.1292 10.7146 27.5999 10.6564 28.0422 10.5008L30.7218 9.55826C32.2134 11.165 33.3247 13.0866 33.9734 15.1808L31.8122 17.0333C31.4562 17.3384 31.1705 17.7169 30.9746 18.1428C30.7787 18.5687 30.6773 19.032 30.6773 19.5008C30.6773 19.9696 30.7787 20.4329 30.9746 20.8588C31.1705 21.2848 31.4562 21.6633 31.8122 21.9684L33.9734 23.8193C33.3247 25.9135 32.2134 27.835 30.7218 29.4418L28.0406 28.4993C27.5983 28.3436 27.1276 28.2854 26.6608 28.3288C26.1939 28.3722 25.742 28.5161 25.336 28.7506C24.93 28.9851 24.5796 29.3046 24.3087 29.6873C24.0378 30.07 23.853 30.5068 23.7668 30.9676L23.2484 33.7626C21.1102 34.2497 18.8899 34.2497 16.7517 33.7626L16.2284 30.9676C16.1423 30.5068 15.9574 30.07 15.6866 29.6873C15.4157 29.3046 15.0652 28.9851 14.6592 28.7506C14.2532 28.5161 13.8013 28.3722 13.3345 28.3288C12.8676 28.2854 12.3969 28.3436 11.9547 28.4993L9.27506 29.4418C7.78346 27.835 6.67219 25.9135 6.02344 23.8193L8.18469 21.9668C8.54036 21.6617 8.82585 21.2832 9.02158 20.8575C9.21731 20.4317 9.31864 19.9686 9.31864 19.5C9.31864 19.0314 9.21731 18.5683 9.02158 18.1426C8.82585 17.7168 8.54036 17.3384 8.18469 17.0333L6.02344 15.1808C6.67171 13.0867 7.78242 11.1652 9.27344 9.55826L11.9547 10.5008ZM19.9984 14.625C21.2914 14.625 22.5313 15.1386 23.4456 16.0529C24.3598 16.9671 24.8734 18.2071 24.8734 19.5C24.8734 20.7929 24.3598 22.0329 23.4456 22.9472C22.5313 23.8614 21.2914 24.375 19.9984 24.375C18.7055 24.375 17.4655 23.8614 16.5513 22.9472C15.6371 22.0329 15.1234 20.7929 15.1234 19.5C15.1234 18.2071 15.6371 16.9671 16.5513 16.0529C17.4655 15.1386 18.7055 14.625 19.9984 14.625Z" stroke="black" stroke-width="2" stroke-linecap="round" stroke-linejoin="round"/>
</g>
</svg>
