<svg width="32" height="32" viewBox="0 0 32 32" fill="none" xmlns="http://www.w3.org/2000/svg">
<g id="mingcute:delete-2-line">
<g id="Group">
<path id="Vector" d="M19.04 2.66669C19.5997 2.66683 20.1451 2.84307 20.5991 3.17043C21.053 3.49779 21.3925 3.95969 21.5693 4.49069L22.2933 6.66669H26.6667C27.0203 6.66669 27.3594 6.80716 27.6095 7.05721C27.8595 7.30726 28 7.6464 28 8.00002C28 8.35364 27.8595 8.69278 27.6095 8.94283C27.3594 9.19288 27.0203 9.33335 26.6667 9.33335L26.6627 9.42802L25.5067 25.6187C25.4345 26.6275 24.9829 27.5715 24.2427 28.2608C23.5025 28.95 22.5287 29.3332 21.5173 29.3333H10.4827C9.47128 29.3332 8.49748 28.95 7.75729 28.2608C7.0171 27.5715 6.56548 26.6275 6.49333 25.6187L5.33733 9.42669L5.33333 9.33335C4.97971 9.33335 4.64057 9.19288 4.39052 8.94283C4.14048 8.69278 4 8.35364 4 8.00002C4 7.6464 4.14048 7.30726 4.39052 7.05721C4.64057 6.80716 4.97971 6.66669 5.33333 6.66669H9.70667L10.4307 4.49069C10.6076 3.95947 10.9472 3.49742 11.4015 3.17004C11.8557 2.84266 12.4014 2.66655 12.9613 2.66669H19.04ZM23.996 9.33335H8.004L9.15333 25.428C9.17727 25.7643 9.3277 26.079 9.57435 26.3088C9.82099 26.5387 10.1455 26.6665 10.4827 26.6667H21.5173C21.8545 26.6665 22.179 26.5387 22.4257 26.3088C22.6723 26.079 22.8227 25.7643 22.8467 25.428L23.996 9.33335ZM13.3333 13.3334C13.6599 13.3334 13.9751 13.4533 14.2192 13.6703C14.4632 13.8873 14.6191 14.1864 14.6573 14.5107L14.6667 14.6667V21.3334C14.6663 21.6732 14.5362 22.0001 14.3029 22.2472C14.0696 22.4943 13.7507 22.643 13.4115 22.6629C13.0722 22.6828 12.7382 22.5725 12.4776 22.3543C12.217 22.1362 12.0495 21.8268 12.0093 21.4894L12 21.3334V14.6667C12 14.3131 12.1405 13.9739 12.3905 13.7239C12.6406 13.4738 12.9797 13.3334 13.3333 13.3334ZM18.6667 13.3334C19.0203 13.3334 19.3594 13.4738 19.6095 13.7239C19.8595 13.9739 20 14.3131 20 14.6667V21.3334C20 21.687 19.8595 22.0261 19.6095 22.2762C19.3594 22.5262 19.0203 22.6667 18.6667 22.6667C18.313 22.6667 17.9739 22.5262 17.7239 22.2762C17.4738 22.0261 17.3333 21.687 17.3333 21.3334V14.6667C17.3333 14.3131 17.4738 13.9739 17.7239 13.7239C17.9739 13.4738 18.313 13.3334 18.6667 13.3334ZM19.04 5.33335H12.96L12.516 6.66669H19.484L19.04 5.33335Z" fill="#FF0000"/>
</g>
</g>
</svg>
